<?xml version="1.0" encoding="UTF-8" standalone="no"?>
<svg
   xmlns:dc="http://purl.org/dc/elements/1.1/"
   xmlns:cc="http://creativecommons.org/ns#"
   xmlns:rdf="http://www.w3.org/1999/02/22-rdf-syntax-ns#"
   xmlns:svg="http://www.w3.org/2000/svg"
   xmlns="http://www.w3.org/2000/svg"
   xmlns:sodipodi="http://sodipodi.sourceforge.net/DTD/sodipodi-0.dtd"
   xmlns:inkscape="http://www.inkscape.org/namespaces/inkscape"
   version="1.1"
   x="0px"
   y="0px"
   viewBox="0 0 54.083344 54.083286"
   id="svg10"
   sodipodi:docname="cross.svg"
   width="54.083344"
   height="54.083286"
   inkscape:version="0.92.3 (2405546, 2018-03-11)">
  <metadata
     id="metadata16">
    <rdf:RDF>
      <cc:Work
         rdf:about="">
        <dc:format>image/svg+xml</dc:format>
        <dc:type
           rdf:resource="http://purl.org/dc/dcmitype/StillImage" />
        <dc:title></dc:title>
      </cc:Work>
    </rdf:RDF>
  </metadata>
  <defs
     id="defs14" />
  <sodipodi:namedview
     pagecolor="#ffffff"
     bordercolor="#666666"
     borderopacity="1"
     objecttolerance="10"
     gridtolerance="10"
     guidetolerance="10"
     inkscape:pageopacity="0"
     inkscape:pageshadow="2"
     inkscape:window-width="756"
     inkscape:window-height="480"
     id="namedview12"
     showgrid="false"
     fit-margin-top="0"
     fit-margin-left="0"
     fit-margin-right="0"
     fit-margin-bottom="0"
     inkscape:zoom="1.888"
     inkscape:cx="27.041672"
     inkscape:cy="14.54162"
     inkscape:window-x="0"
     inkscape:window-y="0"
     inkscape:window-maximized="0"
     inkscape:current-layer="svg10" />
  <g
     transform="translate(-22.958328,-975.32052)"
     id="g4">
    <path
       d="m 76.162979,976.19914 c -1.17153,-1.1715 -3.07108,-1.1715 -4.24263,0 l -21.92039,21.9204 -21.92031,-21.9203 c -1.1716,-1.1716 -3.07104,-1.1716 -4.24264,0 -1.17154,1.1716 -1.17161,3.071 0,4.2427 l 21.92031,21.92026 -21.92024,21.9202 c -1.17157,1.1716 -1.17153,3.0711 0,4.2426 1.17161,1.1716 3.07108,1.1716 4.24264,0 l 21.92023,-21.9202 21.92033,21.9203 c 1.17159,1.1716 3.07109,1.1716 4.24263,0 1.1716,-1.1716 1.17161,-3.071 0,-4.2426 l -21.92031,-21.9203 21.92039,-21.92036 c 1.17156,-1.1716 1.1716,-3.0711 -10e-6,-4.2427 z"
       style="color:#000000;text-indent:0;text-transform:none;direction:ltr;baseline-shift:baseline;display:inline;overflow:visible;visibility:visible;fill:#000000;fill-opacity:1;enable-background:accumulate"
       marker="none"
       visibility="visible"
       display="inline"
       overflow="visible"
       id="path2"
       inkscape:connector-curvature="0" />
  </g>
</svg>
